<?xml version="1.0" encoding="UTF-8"?>
<svg xmlns="http://www.w3.org/2000/svg" width="1986" height="328" viewBox="0 0 1986 328" role="img" aria-label="Vectorized black brush mark on transparent background">
  <path d="M1500.0 298.0L1501.0 299.0L1501.0 298.0ZM1840.0 221.0L1841.0 221.0L1842.0 222.0L1843.0 222.0L1843.0 221.0ZM1825.0 221.0L1825.0 222.0L1827.0 222.0L1826.0 221.0ZM1815.0 221.0L1816.0 221.0L1817.0 222.0L1819.0 222.0L1819.0 221.0ZM1848.0 216.0L1848.0 218.0L1851.0 218.0L1850.0 217.0L1851.0 216.0ZM1878.0 209.0L1878.0 211.0L1881.0 211.0L1881.0 209.0ZM1870.0 208.0L1871.0 209.0L1870.0 210.0L1869.0 210.0L1869.0 211.0L1870.0 212.0L1871.0 212.0L1872.0 211.0L1873.0 211.0L1873.0 210.0L1872.0 209.0L1872.0 208.0ZM1898.0 207.0L1897.0 206.0L1896.0 207.0ZM1877.0 204.0L1877.0 205.0L1880.0 205.0L1879.0 205.0L1878.0 204.0ZM1898.0 200.0L1898.0 201.0L1901.0 201.0L1900.0 200.0ZM1886.0 200.0L1885.0 199.0L1885.0 198.0L1883.0 198.0L1883.0 199.0L1884.0 200.0L1883.0 201.0L1874.0 201.0L1875.0 202.0L1880.0 202.0L1881.0 201.0L1886.0 201.0ZM1872.0 197.0L1873.0 197.0L1874.0 198.0L1874.0 199.0L1877.0 199.0L1877.0 198.0L1876.0 197.0L1877.0 196.0L1874.0 196.0L1873.0 197.0ZM1096.0 171.0L1096.0 172.0L1098.0 172.0L1099.0 173.0L1101.0 173.0L1102.0 174.0L1102.0 175.0L1101.0 176.0L1100.0 176.0L1101.0 177.0L1104.0 177.0L1105.0 178.0L1106.0 178.0L1107.0 179.0L1110.0 179.0L1111.0 180.0L1111.0 181.0L1113.0 181.0L1116.0 184.0L1118.0 184.0L1120.0 186.0L1122.0 186.0L1123.0 187.0L1124.0 187.0L1125.0 188.0L1128.0 188.0L1130.0 190.0L1147.0 190.0L1148.0 189.0L1162.0 189.0L1163.0 188.0L1176.0 188.0L1177.0 187.0L1180.0 187.0L1181.0 186.0L1184.0 186.0L1185.0 185.0L1186.0 185.0L1187.0 184.0L1188.0 184.0L1188.0 180.0L1187.0 179.0L1187.0 178.0L1188.0 177.0L1188.0 175.0L1189.0 174.0L1188.0 173.0L1189.0 172.0L1188.0 172.0L1185.0 169.0L1184.0 169.0L1182.0 167.0L1181.0 167.0L1180.0 166.0L1179.0 166.0L1178.0 165.0L1177.0 165.0L1176.0 164.0L1175.0 164.0L1174.0 163.0L1170.0 163.0L1169.0 162.0L1167.0 162.0L1166.0 161.0L1165.0 161.0L1164.0 160.0L1161.0 160.0L1160.0 159.0L1153.0 159.0L1152.0 158.0L1151.0 158.0L1150.0 159.0L1149.0 159.0L1148.0 158.0L1145.0 158.0L1144.0 159.0L1143.0 159.0L1142.0 158.0L1139.0 158.0L1138.0 159.0L1130.0 159.0L1129.0 160.0L1124.0 160.0L1122.0 162.0L1117.0 162.0L1116.0 163.0L1114.0 163.0L1113.0 162.0L1112.0 162.0L1111.0 163.0L1105.0 163.0L1103.0 165.0L1102.0 165.0L1103.0 166.0L1103.0 167.0L1101.0 169.0L1100.0 169.0L1099.0 170.0L1098.0 170.0L1097.0 171.0ZM1137.0 184.0L1138.0 183.0L1139.0 184.0L1138.0 185.0ZM1120.0 182.0L1121.0 181.0L1122.0 181.0L1123.0 182.0L1122.0 183.0L1121.0 183.0ZM1473.0 168.0L1472.0 167.0L1472.0 166.0L1470.0 166.0L1467.0 163.0L1467.0 162.0L1466.0 162.0L1465.0 161.0L1466.0 160.0L1468.0 160.0L1467.0 159.0L1466.0 159.0L1464.0 157.0L1462.0 157.0L1461.0 156.0L1458.0 156.0L1457.0 155.0L1456.0 155.0L1455.0 154.0L1455.0 153.0L1453.0 153.0L1452.0 152.0L1449.0 152.0L1448.0 151.0L1444.0 151.0L1443.0 150.0L1435.0 150.0L1434.0 149.0L1435.0 148.0L1430.0 148.0L1429.0 149.0L1425.0 149.0L1424.0 150.0L1410.0 150.0L1409.0 149.0L1405.0 149.0L1406.0 150.0L1408.0 150.0L1410.0 152.0L1409.0 153.0L1403.0 153.0L1402.0 154.0L1401.0 153.0L1397.0 153.0L1397.0 154.0L1396.0 155.0L1394.0 155.0L1393.0 156.0L1390.0 156.0L1389.0 157.0L1388.0 157.0L1387.0 158.0L1383.0 158.0L1382.0 159.0L1380.0 159.0L1378.0 161.0L1377.0 161.0L1377.0 162.0L1378.0 163.0L1378.0 164.0L1379.0 164.0L1380.0 165.0L1380.0 167.0L1381.0 168.0L1381.0 173.0L1382.0 173.0L1383.0 174.0L1385.0 174.0L1388.0 177.0L1387.0 178.0L1386.0 178.0L1387.0 178.0L1388.0 177.0L1390.0 179.0L1389.0 180.0L1388.0 180.0L1389.0 180.0L1390.0 179.0L1391.0 180.0L1393.0 180.0L1394.0 181.0L1397.0 181.0L1398.0 182.0L1398.0 183.0L1401.0 183.0L1402.0 182.0L1403.0 183.0L1408.0 183.0L1409.0 184.0L1413.0 184.0L1414.0 185.0L1426.0 185.0L1427.0 184.0L1431.0 184.0L1432.0 183.0L1441.0 183.0L1442.0 182.0L1447.0 182.0L1448.0 181.0L1451.0 181.0L1452.0 180.0L1457.0 180.0L1458.0 179.0L1461.0 179.0L1462.0 178.0L1464.0 178.0L1465.0 177.0L1466.0 177.0L1467.0 176.0L1468.0 176.0L1468.0 174.0L1469.0 173.0L1470.0 173.0L1470.0 172.0L1471.0 171.0L1471.0 170.0L1472.0 169.0L1473.0 169.0ZM1621.0 158.0L1623.0 158.0L1625.0 160.0L1625.0 162.0L1624.0 163.0L1624.0 165.0L1626.0 165.0L1628.0 167.0L1627.0 168.0L1628.0 169.0L1628.0 170.0L1629.0 170.0L1630.0 171.0L1634.0 171.0L1635.0 172.0L1638.0 172.0L1639.0 173.0L1640.0 173.0L1641.0 174.0L1649.0 174.0L1650.0 175.0L1651.0 175.0L1653.0 177.0L1658.0 177.0L1659.0 176.0L1662.0 176.0L1663.0 177.0L1664.0 176.0L1666.0 176.0L1667.0 177.0L1684.0 177.0L1685.0 176.0L1695.0 176.0L1696.0 175.0L1698.0 175.0L1699.0 174.0L1704.0 174.0L1705.0 173.0L1712.0 173.0L1713.0 172.0L1718.0 172.0L1719.0 171.0L1721.0 171.0L1721.0 170.0L1722.0 169.0L1724.0 169.0L1725.0 168.0L1730.0 168.0L1732.0 166.0L1731.0 165.0L1727.0 165.0L1726.0 164.0L1726.0 163.0L1725.0 163.0L1724.0 162.0L1726.0 160.0L1726.0 159.0L1727.0 158.0L1726.0 158.0L1725.0 157.0L1726.0 156.0L1727.0 156.0L1724.0 156.0L1723.0 155.0L1723.0 154.0L1722.0 153.0L1720.0 153.0L1719.0 152.0L1717.0 152.0L1716.0 151.0L1713.0 151.0L1712.0 150.0L1707.0 150.0L1706.0 149.0L1707.0 148.0L1707.0 147.0L1702.0 147.0L1701.0 146.0L1699.0 146.0L1698.0 145.0L1695.0 145.0L1694.0 146.0L1687.0 146.0L1686.0 145.0L1682.0 145.0L1681.0 146.0L1673.0 146.0L1672.0 145.0L1671.0 145.0L1670.0 144.0L1669.0 144.0L1668.0 143.0L1663.0 143.0L1665.0 143.0L1666.0 144.0L1664.0 146.0L1652.0 146.0L1651.0 147.0L1649.0 147.0L1648.0 146.0L1643.0 146.0L1642.0 147.0L1641.0 147.0L1640.0 148.0L1638.0 148.0L1637.0 149.0L1634.0 149.0L1633.0 150.0L1630.0 150.0L1629.0 151.0L1628.0 151.0L1627.0 152.0L1626.0 152.0L1624.0 154.0L1623.0 154.0L1623.0 155.0L1625.0 157.0L1624.0 158.0ZM315.0 93.0L316.0 94.0L319.0 94.0L319.0 93.0ZM100.0 259.0L103.0 263.0L114.0 263.0L120.0 265.0L121.0 263.0L125.0 263.0L126.0 266.0L146.0 265.0L152.0 267.0L162.0 267.0L169.0 264.0L183.0 265.0L195.0 262.0L199.0 259.0L203.0 259.0L207.0 254.0L211.0 256.0L212.0 253.0L209.0 253.0L207.0 250.0L210.0 244.0L214.0 244.0L212.0 242.0L213.0 239.0L222.0 228.0L224.0 224.0L223.0 220.0L225.0 220.0L228.0 216.0L235.0 212.0L233.0 212.0L232.0 210.0L237.0 206.0L235.0 206.0L233.0 209.0L233.0 205.0L244.0 194.0L246.0 194.0L245.0 192.0L248.0 191.0L260.0 175.0L262.0 170.0L269.0 164.0L276.0 164.0L287.0 168.0L335.0 178.0L338.0 180.0L345.0 180.0L361.0 184.0L364.0 186.0L377.0 188.0L390.0 193.0L394.0 193.0L419.0 202.0L457.0 209.0L485.0 218.0L501.0 220.0L505.0 222.0L531.0 224.0L546.0 227.0L576.0 228.0L624.0 236.0L715.0 243.0L739.0 242.0L763.0 244.0L794.0 243.0L846.0 246.0L867.0 245.0L890.0 247.0L956.0 247.0L968.0 245.0L997.0 245.0L1046.0 242.0L1086.0 242.0L1097.0 239.0L1104.0 240.0L1113.0 238.0L1123.0 240.0L1142.0 240.0L1146.0 238.0L1152.0 240.0L1153.0 237.0L1158.0 239.0L1160.0 237.0L1165.0 239.0L1225.0 237.0L1233.0 238.0L1240.0 237.0L1232.0 237.0L1232.0 235.0L1243.0 234.0L1243.0 236.0L1245.0 235.0L1248.0 237.0L1250.0 236.0L1248.0 236.0L1248.0 234.0L1253.0 233.0L1254.0 235.0L1252.0 236.0L1260.0 236.0L1257.0 236.0L1257.0 234.0L1262.0 234.0L1264.0 236.0L1274.0 236.0L1276.0 234.0L1280.0 236.0L1307.0 235.0L1305.0 233.0L1306.0 230.0L1310.0 231.0L1312.0 234.0L1311.0 236.0L1315.0 236.0L1315.0 232.0L1318.0 232.0L1319.0 236.0L1373.0 236.0L1403.0 234.0L1413.0 235.0L1431.0 233.0L1436.0 234.0L1453.0 232.0L1468.0 233.0L1471.0 231.0L1477.0 232.0L1521.0 229.0L1587.0 231.0L1687.0 228.0L1746.0 229.0L1796.0 226.0L1811.0 222.0L1805.0 222.0L1805.0 219.0L1811.0 220.0L1819.0 219.0L1821.0 217.0L1824.0 219.0L1828.0 219.0L1831.0 216.0L1835.0 219.0L1838.0 217.0L1842.0 218.0L1842.0 216.0L1828.0 217.0L1824.0 215.0L1826.0 213.0L1859.0 212.0L1859.0 209.0L1863.0 212.0L1866.0 211.0L1866.0 208.0L1864.0 206.0L1870.0 206.0L1870.0 203.0L1872.0 202.0L1869.0 200.0L1869.0 196.0L1867.0 195.0L1776.0 192.0L1661.0 193.0L1605.0 197.0L1543.0 198.0L1496.0 202.0L1397.0 202.0L1376.0 204.0L1352.0 204.0L1347.0 201.0L1329.0 201.0L1310.0 203.0L1251.0 204.0L1236.0 206.0L1231.0 205.0L1228.0 207.0L1219.0 207.0L1217.0 205.0L1213.0 207.0L1197.0 207.0L1194.0 205.0L1170.0 207.0L1163.0 206.0L1168.0 205.0L1120.0 206.0L1110.0 208.0L1094.0 207.0L1076.0 209.0L1046.0 209.0L956.0 214.0L797.0 212.0L780.0 213.0L662.0 207.0L628.0 201.0L566.0 196.0L554.0 192.0L548.0 192.0L546.0 190.0L537.0 190.0L533.0 188.0L525.0 188.0L515.0 185.0L518.0 184.0L514.0 185.0L507.0 182.0L478.0 179.0L476.0 177.0L468.0 178.0L467.0 177.0L469.0 176.0L469.0 174.0L465.0 175.0L460.0 171.0L452.0 169.0L403.0 162.0L387.0 158.0L387.0 156.0L398.0 154.0L423.0 153.0L435.0 148.0L443.0 148.0L458.0 145.0L474.0 140.0L494.0 139.0L501.0 134.0L506.0 134.0L515.0 130.0L523.0 124.0L525.0 118.0L528.0 116.0L530.0 112.0L530.0 105.0L527.0 95.0L528.0 92.0L523.0 87.0L508.0 81.0L490.0 78.0L458.0 69.0L448.0 68.0L437.0 64.0L391.0 61.0L385.0 62.0L315.0 60.0L298.0 61.0L296.0 63.0L285.0 63.0L274.0 66.0L264.0 66.0L260.0 69.0L255.0 69.0L237.0 76.0L236.0 75.0L233.0 79.0L228.0 81.0L215.0 96.0L209.0 100.0L204.0 100.0L204.0 103.0L197.0 106.0L194.0 110.0L189.0 112.0L187.0 116.0L184.0 118.0L185.0 119.0L174.0 130.0L170.0 138.0L164.0 144.0L165.0 146.0L158.0 157.0L152.0 161.0L140.0 176.0L138.0 176.0L138.0 178.0L133.0 184.0L129.0 196.0L127.0 198.0L127.0 205.0L121.0 209.0L116.0 219.0L117.0 222.0L115.0 231.0L107.0 242.0L100.0 248.0ZM943.0 244.0L944.0 243.0L945.0 244.0L944.0 245.0ZM950.0 243.0L951.0 242.0L953.0 242.0L954.0 243.0L953.0 244.0L951.0 244.0ZM919.0 243.0L920.0 242.0L921.0 242.0L922.0 243.0L921.0 244.0L920.0 244.0ZM888.0 243.0L889.0 242.0L890.0 243.0L889.0 244.0ZM881.0 243.0L882.0 242.0L883.0 243.0L882.0 244.0ZM864.0 243.0L865.0 242.0L866.0 242.0L867.0 243.0L866.0 244.0L865.0 244.0ZM965.0 242.0L966.0 241.0L970.0 241.0L971.0 242.0L970.0 243.0L966.0 243.0ZM928.0 242.0L929.0 241.0L931.0 241.0L932.0 242.0L936.0 242.0L937.0 243.0L936.0 244.0L931.0 244.0L930.0 243.0L929.0 243.0ZM911.0 242.0L912.0 241.0L913.0 241.0L914.0 242.0L913.0 243.0L912.0 243.0ZM907.0 242.0L908.0 241.0L910.0 241.0L911.0 242.0L910.0 243.0L908.0 243.0ZM900.0 242.0L901.0 241.0L904.0 241.0L905.0 242.0L904.0 243.0L901.0 243.0ZM887.0 242.0L888.0 241.0L889.0 242.0L888.0 243.0ZM960.0 241.0L961.0 240.0L962.0 241.0L961.0 242.0ZM847.0 241.0L848.0 240.0L849.0 241.0L848.0 242.0ZM840.0 241.0L841.0 240.0L842.0 240.0L843.0 241.0L842.0 242.0L841.0 242.0ZM832.0 241.0L833.0 240.0L834.0 241.0L833.0 242.0ZM895.0 240.0L896.0 239.0L897.0 240.0L896.0 241.0ZM890.0 240.0L891.0 239.0L892.0 240.0L891.0 241.0ZM957.0 239.0L958.0 238.0L959.0 239.0L958.0 240.0ZM951.0 239.0L952.0 238.0L953.0 239.0L952.0 240.0ZM949.0 239.0L950.0 238.0L951.0 239.0L950.0 240.0ZM935.0 239.0L936.0 238.0L937.0 238.0L938.0 239.0L937.0 240.0L936.0 240.0ZM874.0 239.0L875.0 238.0L876.0 239.0L875.0 240.0ZM987.0 238.0L988.0 237.0L989.0 237.0L990.0 238.0L989.0 239.0L988.0 239.0ZM939.0 239.0L940.0 238.0L941.0 238.0L942.0 237.0L944.0 239.0L943.0 240.0L940.0 240.0ZM915.0 238.0L916.0 237.0L921.0 237.0L922.0 238.0L921.0 239.0L916.0 239.0ZM896.0 238.0L897.0 237.0L898.0 238.0L897.0 239.0ZM973.0 238.0L975.0 236.0L976.0 236.0L977.0 237.0L977.0 238.0L976.0 239.0L974.0 239.0ZM958.0 237.0L959.0 236.0L961.0 236.0L962.0 237.0L960.0 239.0ZM948.0 237.0L949.0 236.0L951.0 236.0L952.0 237.0L951.0 238.0L949.0 238.0ZM942.0 237.0L943.0 236.0L945.0 236.0L946.0 237.0L945.0 238.0L943.0 238.0ZM932.0 238.0L932.0 237.0L933.0 236.0L936.0 236.0L937.0 237.0L935.0 239.0L933.0 239.0ZM925.0 237.0L926.0 236.0L928.0 236.0L930.0 238.0L929.0 239.0L927.0 239.0ZM908.0 237.0L909.0 236.0L910.0 237.0L909.0 238.0ZM756.0 237.0L757.0 236.0L758.0 236.0L759.0 237.0L758.0 238.0L757.0 238.0ZM1224.0 236.0L1225.0 235.0L1227.0 235.0L1228.0 236.0L1227.0 237.0L1225.0 237.0ZM1137.0 236.0L1138.0 235.0L1139.0 236.0L1138.0 237.0ZM991.0 236.0L992.0 235.0L993.0 236.0L992.0 237.0ZM981.0 236.0L982.0 235.0L983.0 235.0L984.0 236.0L983.0 237.0L982.0 237.0ZM976.0 236.0L977.0 235.0L978.0 236.0L977.0 237.0ZM1339.0 235.0L1340.0 234.0L1341.0 235.0L1340.0 236.0ZM935.0 235.0L936.0 234.0L937.0 234.0L938.0 235.0L937.0 236.0L936.0 236.0ZM922.0 235.0L923.0 234.0L924.0 234.0L925.0 235.0L924.0 236.0L923.0 236.0ZM917.0 235.0L918.0 234.0L920.0 234.0L921.0 235.0L920.0 236.0L918.0 236.0ZM898.0 235.0L899.0 234.0L900.0 235.0L899.0 236.0ZM895.0 235.0L896.0 234.0L897.0 234.0L898.0 235.0L897.0 236.0L896.0 236.0ZM890.0 235.0L891.0 234.0L892.0 234.0L893.0 235.0L892.0 236.0L891.0 236.0ZM1297.0 234.0L1298.0 233.0L1299.0 233.0L1300.0 234.0L1299.0 235.0L1298.0 235.0ZM864.0 234.0L865.0 233.0L866.0 234.0L865.0 235.0ZM1329.0 233.0L1330.0 232.0L1333.0 232.0L1334.0 233.0L1333.0 234.0L1330.0 234.0ZM1321.0 234.0L1323.0 232.0L1326.0 232.0L1327.0 233.0L1325.0 235.0L1322.0 235.0ZM1031.0 233.0L1032.0 232.0L1033.0 233.0L1032.0 234.0ZM973.0 233.0L974.0 232.0L975.0 232.0L976.0 233.0L975.0 234.0L974.0 234.0ZM933.0 233.0L934.0 232.0L935.0 232.0L936.0 233.0L935.0 234.0L934.0 234.0ZM928.0 233.0L929.0 232.0L930.0 233.0L929.0 234.0ZM924.0 233.0L925.0 232.0L926.0 232.0L927.0 233.0L926.0 234.0L925.0 234.0ZM911.0 233.0L912.0 232.0L915.0 232.0L916.0 233.0L915.0 234.0L912.0 234.0ZM888.0 233.0L889.0 232.0L891.0 232.0L892.0 233.0L891.0 234.0L889.0 234.0ZM1290.0 232.0L1291.0 231.0L1292.0 232.0L1291.0 233.0ZM998.0 232.0L999.0 231.0L1000.0 232.0L999.0 233.0ZM943.0 232.0L944.0 231.0L945.0 232.0L944.0 233.0ZM938.0 232.0L939.0 231.0L942.0 231.0L944.0 233.0L943.0 234.0L940.0 234.0ZM935.0 232.0L936.0 231.0L937.0 232.0L936.0 233.0ZM1298.0 231.0L1299.0 230.0L1301.0 230.0L1302.0 231.0L1300.0 233.0ZM870.0 231.0L871.0 230.0L874.0 230.0L875.0 231.0L874.0 232.0L871.0 232.0ZM982.0 230.0L983.0 229.0L984.0 229.0L985.0 230.0L984.0 231.0L983.0 231.0ZM821.0 230.0L822.0 229.0L824.0 229.0L825.0 230.0L824.0 231.0L822.0 231.0ZM899.0 229.0L900.0 228.0L901.0 228.0L902.0 229.0L901.0 230.0L900.0 230.0ZM890.0 229.0L891.0 228.0L892.0 229.0L891.0 230.0ZM940.0 228.0L941.0 227.0L943.0 227.0L944.0 228.0L943.0 229.0L941.0 229.0ZM864.0 228.0L865.0 227.0L866.0 228.0L865.0 229.0ZM963.0 227.0L964.0 226.0L965.0 226.0L966.0 227.0L965.0 228.0L964.0 228.0ZM917.0 227.0L918.0 226.0L919.0 226.0L920.0 227.0L919.0 228.0L918.0 228.0ZM991.0 226.0L992.0 225.0L993.0 226.0L992.0 227.0ZM980.0 226.0L981.0 225.0L982.0 226.0L981.0 227.0ZM957.0 226.0L958.0 225.0L959.0 226.0L958.0 227.0ZM1012.0 225.0L1013.0 224.0L1014.0 225.0L1013.0 226.0ZM997.0 225.0L998.0 224.0L999.0 224.0L1000.0 225.0L999.0 226.0L998.0 226.0ZM898.0 225.0L899.0 224.0L900.0 225.0L899.0 226.0ZM894.0 225.0L895.0 224.0L896.0 225.0L895.0 226.0ZM821.0 225.0L822.0 224.0L823.0 224.0L824.0 225.0L823.0 226.0L822.0 226.0ZM891.0 224.0L892.0 223.0L894.0 223.0L895.0 224.0L894.0 225.0L892.0 225.0ZM930.0 223.0L931.0 222.0L932.0 223.0L931.0 224.0ZM872.0 223.0L873.0 222.0L874.0 223.0L873.0 224.0ZM940.0 222.0L941.0 221.0L942.0 222.0L941.0 223.0ZM883.0 220.0L884.0 219.0L885.0 219.0L886.0 220.0L885.0 221.0L884.0 221.0ZM878.0 220.0L879.0 219.0L880.0 220.0L879.0 221.0ZM890.0 220.0L890.0 219.0L891.0 218.0L892.0 218.0L893.0 219.0L891.0 221.0ZM175.0 219.0L176.0 218.0L177.0 218.0L178.0 219.0L177.0 220.0L176.0 220.0ZM1028.0 218.0L1029.0 217.0L1030.0 218.0L1029.0 219.0ZM956.0 218.0L957.0 217.0L958.0 217.0L959.0 218.0L958.0 219.0L957.0 219.0ZM942.0 218.0L943.0 217.0L944.0 218.0L943.0 219.0ZM939.0 218.0L940.0 217.0L941.0 217.0L942.0 218.0L941.0 219.0L940.0 219.0ZM923.0 218.0L924.0 217.0L927.0 217.0L928.0 218.0L927.0 219.0L924.0 219.0ZM908.0 218.0L909.0 217.0L910.0 218.0L909.0 219.0ZM894.0 219.0L895.0 218.0L897.0 218.0L898.0 217.0L899.0 217.0L900.0 218.0L901.0 218.0L902.0 219.0L901.0 220.0L895.0 220.0ZM122.0 218.0L123.0 217.0L124.0 218.0L123.0 219.0ZM1812.0 215.0L1813.0 214.0L1814.0 215.0L1813.0 216.0ZM1817.0 215.0L1818.0 214.0L1819.0 214.0L1820.0 213.0L1822.0 213.0L1823.0 214.0L1823.0 215.0L1822.0 216.0L1818.0 216.0ZM1027.0 214.0L1028.0 213.0L1029.0 214.0L1028.0 215.0ZM1036.0 213.0L1037.0 212.0L1038.0 213.0L1037.0 214.0ZM150.0 212.0L151.0 211.0L152.0 211.0L153.0 212.0L152.0 213.0L151.0 213.0ZM1841.0 211.0L1842.0 210.0L1843.0 211.0L1842.0 212.0ZM160.0 210.0L161.0 209.0L163.0 209.0L164.0 210.0L163.0 211.0L161.0 211.0ZM1858.0 208.0L1859.0 207.0L1861.0 207.0L1862.0 208.0L1861.0 209.0L1859.0 209.0ZM224.0 208.0L225.0 207.0L226.0 208.0L225.0 209.0ZM1850.0 207.0L1851.0 206.0L1852.0 206.0L1854.0 208.0L1853.0 209.0L1851.0 209.0L1850.0 208.0ZM1859.0 205.0L1860.0 206.0L1858.0 208.0L1857.0 208.0L1856.0 207.0L1858.0 205.0ZM1850.0 203.0L1851.0 202.0L1852.0 202.0L1853.0 203.0L1852.0 204.0L1851.0 204.0ZM1855.0 203.0L1856.0 202.0L1863.0 202.0L1862.0 201.0L1863.0 200.0L1866.0 200.0L1867.0 201.0L1867.0 202.0L1868.0 202.0L1869.0 203.0L1868.0 204.0L1866.0 204.0L1865.0 205.0L1864.0 204.0L1856.0 204.0ZM1855.0 201.0L1856.0 200.0L1859.0 200.0L1860.0 201.0L1859.0 202.0L1856.0 202.0ZM1863.0 198.0L1864.0 197.0L1865.0 197.0L1866.0 198.0L1866.0 199.0L1865.0 200.0L1864.0 200.0L1863.0 199.0ZM131.0 197.0L132.0 196.0L133.0 197.0L132.0 198.0ZM213.0 178.0L214.0 177.0L215.0 178.0L214.0 179.0ZM214.0 177.0L215.0 176.0L217.0 176.0L218.0 177.0L217.0 178.0L215.0 178.0ZM217.0 176.0L218.0 175.0L219.0 176.0L218.0 177.0ZM243.0 175.0L244.0 174.0L250.0 174.0L251.0 175.0L251.0 176.0L250.0 177.0L244.0 177.0L243.0 176.0ZM216.0 174.0L217.0 173.0L218.0 173.0L219.0 174.0L218.0 175.0L217.0 175.0ZM221.0 168.0L222.0 167.0L223.0 168.0L222.0 169.0ZM241.0 153.0L242.0 152.0L243.0 153.0L242.0 154.0ZM277.0 133.0L278.0 132.0L282.0 132.0L283.0 133.0L282.0 134.0L278.0 134.0ZM499.0 131.0L500.0 130.0L504.0 130.0L505.0 131.0L504.0 132.0L500.0 132.0ZM516.0 127.0L517.0 126.0L518.0 127.0L517.0 128.0ZM490.0 125.0L491.0 124.0L492.0 125.0L491.0 126.0ZM291.0 124.0L292.0 123.0L293.0 124.0L292.0 125.0ZM315.0 102.0L316.0 101.0L317.0 102.0L316.0 103.0ZM290.0 132.0L290.0 131.0L292.0 128.0L295.0 128.0L295.0 127.0L292.0 127.0L291.0 126.0L292.0 125.0L298.0 125.0L298.0 124.0L295.0 124.0L294.0 123.0L295.0 122.0L296.0 122.0L299.0 120.0L306.0 120.0L307.0 119.0L308.0 119.0L308.0 118.0L307.0 117.0L301.0 117.0L298.0 114.0L300.0 112.0L301.0 113.0L303.0 113.0L303.0 112.0L304.0 111.0L309.0 110.0L308.0 110.0L307.0 109.0L308.0 108.0L309.0 108.0L308.0 107.0L309.0 106.0L313.0 106.0L314.0 105.0L313.0 104.0L315.0 102.0L316.0 103.0L319.0 103.0L316.0 101.0L316.0 98.0L317.0 97.0L316.0 98.0L313.0 98.0L311.0 100.0L308.0 101.0L308.0 103.0L307.0 104.0L305.0 104.0L304.0 103.0L305.0 100.0L306.0 99.0L308.0 99.0L308.0 98.0L307.0 97.0L309.0 95.0L312.0 94.0L311.0 93.0L313.0 90.0L312.0 89.0L312.0 88.0L313.0 87.0L316.0 87.0L317.0 86.0L347.0 86.0L348.0 87.0L348.0 88.0L354.0 88.0L355.0 89.0L355.0 91.0L356.0 91.0L359.0 93.0L362.0 93.0L364.0 95.0L366.0 95.0L367.0 96.0L367.0 97.0L368.0 97.0L368.0 96.0L367.0 96.0L364.0 93.0L365.0 92.0L367.0 92.0L363.0 92.0L362.0 91.0L363.0 90.0L372.0 90.0L377.0 93.0L377.0 92.0L376.0 92.0L375.0 91.0L376.0 90.0L379.0 90.0L380.0 91.0L379.0 92.0L381.0 92.0L382.0 93.0L383.0 92.0L382.0 91.0L383.0 90.0L403.0 90.0L404.0 91.0L407.0 91.0L408.0 92.0L410.0 92.0L412.0 94.0L414.0 94.0L417.0 96.0L422.0 97.0L427.0 100.0L429.0 100.0L430.0 101.0L435.0 103.0L437.0 105.0L438.0 105.0L442.0 109.0L440.0 111.0L435.0 113.0L436.0 113.0L437.0 114.0L437.0 115.0L436.0 116.0L433.0 116.0L434.0 116.0L435.0 117.0L434.0 118.0L428.0 118.0L427.0 119.0L422.0 119.0L421.0 120.0L418.0 120.0L417.0 121.0L413.0 121.0L412.0 122.0L408.0 122.0L407.0 123.0L405.0 123.0L404.0 124.0L400.0 124.0L399.0 125.0L397.0 125.0L396.0 126.0L389.0 126.0L388.0 127.0L379.0 127.0L378.0 128.0L371.0 128.0L370.0 129.0L365.0 129.0L364.0 130.0L355.0 130.0L354.0 129.0L350.0 129.0L349.0 130.0L335.0 130.0L334.0 131.0L321.0 131.0L320.0 132.0L314.0 132.0L313.0 133.0L291.0 133.0Z" fill="#000000" fill-rule="evenodd"/>
</svg>
